<?xml version="1.0" standalone="no"?>
<!DOCTYPE svg PUBLIC "-//W3C//DTD SVG 20010904//EN"
 "http://www.w3.org/TR/2001/REC-SVG-20010904/DTD/svg10.dtd">
<svg version="1.0" xmlns="http://www.w3.org/2000/svg"
 width="400.000000pt" height="400.000000pt" viewBox="0 0 400.000000 400.000000"
 preserveAspectRatio="xMidYMid meet">
<metadata>
Created by potrace 1.11, written by Peter Selinger 2001-2013
</metadata>
<g transform="translate(0.000000,400.000000) scale(0.100000,-0.100000)"
fill="#000000" stroke="none">
<path d="M1828 3995 c-2 -1 -32 -6 -67 -9 -36 -4 -67 -8 -70 -10 -3 -2 -30 -7
-60 -10 -29 -4 -57 -8 -61 -11 -4 -2 -21 -7 -39 -10 -54 -9 -220 -65 -311
-103 -359 -153 -677 -416 -882 -732 -85 -130 -90 -139 -134 -230 -84 -172
-142 -354 -180 -565 -20 -113 -28 -428 -13 -535 5 -36 12 -83 15 -105 9 -65
43 -204 70 -290 127 -387 362 -721 684 -969 266 -205 560 -332 905 -392 139
-24 582 -24 623 0 4 2 31 7 61 10 29 4 57 8 61 11 4 2 21 7 38 10 94 16 344
110 462 173 266 141 515 357 684 592 257 356 385 750 384 1181 -1 182 -13 290
-49 449 -116 505 -427 946 -869 1233 -254 164 -551 270 -860 306 -69 8 -384
13 -392 6z m402 -58 c14 -3 43 -8 65 -11 98 -14 127 -20 239 -52 324 -93 601
-257 842 -498 316 -317 499 -689 558 -1136 14 -104 15 -414 1 -490 -72 -411
-193 -693 -416 -969 -319 -398 -767 -647 -1279 -715 -100 -13 -404 -15 -475
-2 -16 3 -46 7 -65 10 -146 20 -366 86 -512 154 -523 242 -914 702 -1068 1255
-26 95 -26 97 -47 222 -18 109 -24 414 -10 523 44 353 188 701 402 973 79 101
263 282 357 352 285 213 639 354 958 383 41 3 77 8 79 10 6 6 339 -3 371 -9z"/>
<path d="M2280 3208 c-25 -27 -25 -39 1 -113 52 -148 2 -302 -195 -599 -74
-111 -393 -524 -406 -526 -7 0 5 462 15 550 2 19 6 69 10 110 10 121 13 145
40 310 3 19 11 55 16 79 5 24 8 46 5 48 -9 9 -141 -135 -225 -247 -48 -63
-165 -232 -261 -375 -170 -255 -299 -435 -310 -435 -7 0 -7 -6 -14 255 -6 235
1 296 46 425 36 102 66 162 125 253 l43 68 -75 -2 c-159 -5 -319 -46 -416
-108 -95 -60 -171 -161 -203 -270 -20 -69 -20 -110 0 -161 24 -60 74 -79 107
-42 23 25 21 54 -5 105 -70 137 50 317 257 385 33 11 77 23 97 26 l36 7 -48
-82 c-52 -86 -83 -160 -103 -243 -20 -84 -15 -542 8 -706 2 -14 6 -50 10 -80
12 -105 12 -105 59 -47 141 175 349 464 475 662 129 202 193 295 203 295 5 0
7 -8 4 -17 -11 -42 -18 -95 -31 -253 -4 -53 -8 -172 -20 -587 -4 -106 -3 -193
0 -193 7 0 29 22 131 132 174 186 553 692 653 870 88 159 133 342 108 439 -20
81 -91 116 -137 67z"/>
<path d="M3184 2127 c-56 -41 -186 -169 -251 -247 -102 -121 -275 -371 -383
-553 -69 -116 -81 -131 -78 -95 0 13 -2 61 -6 108 -11 132 -14 168 -21 260 -6
86 -9 121 -21 265 -4 44 -7 119 -8 168 -1 72 -4 86 -15 82 -8 -3 -42 -8 -75
-10 -34 -2 -100 -7 -147 -10 -98 -6 -111 -8 -188 -30 -205 -59 -347 -214 -357
-389 -7 -135 88 -255 149 -188 26 29 20 68 -19 122 -69 96 -55 191 43 285 85
83 191 127 337 141 l68 7 -7 -79 c-15 -171 -77 -458 -135 -614 -57 -158 -147
-297 -229 -353 -50 -34 -92 -38 -213 -22 -52 7 -58 6 -82 -18 -31 -31 -29 -68
3 -101 31 -30 120 -33 200 -6 214 72 363 303 467 725 9 34 42 227 49 283 4 29
8 52 10 50 2 -2 6 -46 10 -98 3 -52 8 -111 10 -130 2 -19 7 -78 10 -130 3 -52
7 -120 10 -150 7 -73 13 -159 19 -245 3 -38 8 -110 12 -160 4 -49 7 -100 8
-112 0 -13 3 -23 7 -23 3 0 35 51 69 113 113 202 221 380 316 519 99 147 228
323 243 332 5 3 -2 -24 -14 -62 -13 -37 -53 -184 -90 -327 -81 -318 -95 -367
-132 -477 l-29 -87 31 7 c16 4 73 6 125 4 52 -2 138 -4 190 -5 l95 -2 3 28 3
27 -75 0 c-104 0 -175 16 -170 38 54 243 232 924 282 1077 22 66 39 121 37
123 -1 1 -29 -17 -61 -41z"/>
</g>
</svg>
