<?xml version="1.0"?>
<svg xmlns="http://www.w3.org/2000/svg" id="Layer_1" data-name="Layer 1" viewBox="0 0 512 512" width="512" height="512"><title>Sales growth</title><path d="M104.1,392.848V369.329a71.7,71.7,0,0,1-16.33-2.07v25.589l17.118,17.2,8.165-8.206Z" style="fill:#d4e1f4"/><path d="M109.816,234.59a16.83,16.83,0,0,0-16.627-16.774l-18.54-.175L80.136,214a25.988,25.988,0,0,0,11.442-18.536,73.147,73.147,0,0,1,12.892-5.3,64.767,64.767,0,0,1,8.491-1.68,66.2,66.2,0,0,0-8.209-.529,64.1,64.1,0,0,0-16.612,2.209,73.147,73.147,0,0,0-12.892,5.3A25.988,25.988,0,0,1,63.806,214l-5.488,3.638,18.541.175A16.83,16.83,0,0,1,93.486,234.59a6.16,6.16,0,0,0,6.184,6.148H116A6.16,6.16,0,0,1,109.816,234.59Z" style="fill:#d4e1f4"/><path d="M60.009,298.7v-.1a4.8,4.8,0,0,0-4.112-4.853c-1.016-.349-3.35-1.321-4.115-1.675a11.884,11.884,0,0,1-5.053-12.784A7.7,7.7,0,0,1,53.7,273.4a4.882,4.882,0,0,0,2.017-.648c9.145-1.143,16.651-9.006,17.543-18.842a33.888,33.888,0,0,1,10.02-21.636,7,7,0,0,0-6.52-4.645l-4.529-.044c-9.583,7.448-14.33,15.624-15.3,26.325-.892,9.836-8.4,17.7-17.544,18.842a4.873,4.873,0,0,1-2.016.648,7.7,7.7,0,0,0-6.972,5.883,11.884,11.884,0,0,0,5.053,12.784c.765.354,3.1,1.326,4.114,1.675a4.8,4.8,0,0,1,4.113,4.853v.1a60.747,60.747,0,0,0,69,60.28A60.918,60.918,0,0,1,60.009,298.7Z" style="fill:#d4e1f4"/><path d="M52.636,405.264l11.842-4.274L61.982,396l-25.676,9.266A30.348,30.348,0,0,0,20,429.418v51.374H36.33V429.418A30.35,30.35,0,0,1,52.636,405.264Z" style="fill:#d4e1f4"/><path d="M487.933,20H117.748C108.925,20,102,27.546,102,36.368V67.506C102,76.329,108.925,84,117.748,84H122V187h12V84H471V299.812c0,14-10.779,25.188-23.951,25.188H160v12H289.965l-53.96,58.136A6.05,6.05,0,0,0,240.4,405.3a5.973,5.973,0,0,0,4.4-1.9l57.8-62.16,57.8,62.169a6,6,0,0,0,8.48.311,6.119,6.119,0,0,0,.308-8.578L315.218,337H447.049C466.838,337,483,320.426,483,299.812V84h4.933C496.755,84,504,76.329,504,67.506V36.368A16.4,16.4,0,0,0,487.933,20ZM492,67a4,4,0,0,1-4,4H118a4,4,0,0,1-4-4V36a4,4,0,0,1,4-4H488a4,4,0,0,1,4,4Z" style="fill:#1ae5be"/><path d="M265,210a6,6,0,0,0-6-6H235a6,6,0,0,0-6,6v60a6,6,0,0,0,6,6h24a6,6,0,0,0,6-6Zm-24,6h12v48H241Z" style="fill:#0635c9"/><path d="M321,190a6,6,0,0,0-6-6H291a6,6,0,0,0-6,6v80a6,6,0,0,0,6,6h24a6,6,0,0,0,6-6Zm-24,6h12v68H297Z" style="fill:#0635c9"/><path d="M377,150a6,6,0,0,0-6-6H347a6,6,0,0,0-6,6V270a6,6,0,0,0,6,6h24a6,6,0,0,0,6-6Zm-24,6h12V264H353Z" style="fill:#0635c9"/><path d="M177.433,395.527c-.21-.1-.217-.2-.438-.277l-24-8.734v-11.9a6.19,6.19,0,0,0-3.905-5.544,5.941,5.941,0,0,0-1.333-.358L132.328,364.5A70.9,70.9,0,0,0,175.5,303.014a22.942,22.942,0,0,0,13.407-26.434A18.415,18.415,0,0,0,178.5,264.013l.858-5.932c.021-.145.04-.291.05-.438a75.569,75.569,0,0,0-94.981-78.31A83.124,83.124,0,0,0,69.49,185.41q-1.225.6-2.462,1.191a6,6,0,0,0-3.409,5.412,15.166,15.166,0,0,1-6.786,12.659l-18.8,12.493a5.967,5.967,0,0,0-1.835,1.926l-1.117,1.874a5.913,5.913,0,0,0-.323.622,75.817,75.817,0,0,0-6.371,36.056c.01.152.026.3.048.455l.861,5.886a18.432,18.432,0,0,0-10.486,12.6,22.775,22.775,0,0,0,10.1,24.77,20.791,20.791,0,0,0,3.228,1.477,72.007,72.007,0,0,0,43.191,61.733l-15.383,4.2.019.07a3.283,3.283,0,0,0-.5.241A5.8,5.8,0,0,0,56,374.618v11.9L31.563,395.25c-.22.08-.553.172-.763.277A41.476,41.476,0,0,0,8.112,428.9c-.013.165-.112.331-.112.5v56.231A6.383,6.383,0,0,0,14.067,492h180c3.313,0,5.933-3.055,5.933-6.368V429.4c0-.167.027-.333.013-.5A41.361,41.361,0,0,0,177.433,395.527ZM132,380.459v-3.611l2.888.789Zm5.907,11.336-15.8,30.174-8.626-5.751ZM63.475,214.666a27.132,27.132,0,0,0,11.866-18.758,69.6,69.6,0,0,1,12.2-4.986A63.65,63.65,0,0,1,167.454,256.6l-1.262,8.812-.657.813a.415.415,0,0,1-.558.158c-.335-.118-.335-.063-.335-.237A26.214,26.214,0,0,0,138.258,240H98.808a5.318,5.318,0,0,1-5.105-5.341,18.078,18.078,0,0,0-17.741-18.035l-15.031-.208ZM44.024,298.525A6,6,0,0,0,38.96,292.6c-.991-.348-3.139-1.222-3.918-1.575a10.772,10.772,0,0,1-4.571-11.59,6.635,6.635,0,0,1,6.019-5.068,6,6,0,0,0,5.435-6.386l-.062-.9c-.01-.153-.027-.305-.049-.456l-1.466-10.027A63.878,63.878,0,0,1,44.981,228.2l30.862.306a6.146,6.146,0,0,1,5.86,6.154A17.327,17.327,0,0,0,98.808,252h39.45a14.2,14.2,0,0,1,14.384,14.149,12.217,12.217,0,0,0,8.335,11.669,12.361,12.361,0,0,0,12.731-2.732,6.356,6.356,0,0,1,3.578,4.377,10.789,10.789,0,0,1-8.448,13.155,5.893,5.893,0,0,0-4.838,5.9v.106a59.988,59.988,0,0,1-119.976-.1ZM76,376.839v3.678l-2.889-2.889Zm18.649,39.379-8.627,5.751L70.226,391.8ZM98,480H20V429.662a29.569,29.569,0,0,1,15.718-23.25l24.057-8.675,18.7,35.707a6.008,6.008,0,0,0,5.321,3.217,5.9,5.9,0,0,0,3.3-1.008L98,428.361ZM88,392.517V368.69a69.272,69.272,0,0,0,15.805,1.811A68.525,68.525,0,0,0,120,368.6v23.856l-16.029,16.206ZM188,480H110V428.361l10.971,7.292a6.026,6.026,0,0,0,8.673-2.209l18.695-35.707,24.009,8.675A29.5,29.5,0,0,1,188,429.663Z" style="fill:#0635c9"/><circle cx="120.445" cy="469.852" r="7.351" style="fill:#1ae5be"/><circle cx="120.445" cy="450.153" r="7.351" style="fill:#1ae5be"/></svg>
