<?xml version="1.0"?>
<svg xmlns="http://www.w3.org/2000/svg" id="Layer_1" data-name="Layer 1" viewBox="0 0 512 512" width="512" height="512"><title>pin location navigation</title><path d="M303.615,226.01l-30.929-19.869a26.9,26.9,0,0,0-35.008,3.457l-27.866,29.038-64.326-39.907A27.126,27.126,0,0,0,114.6,200.37L22,261.7V87.381A30.806,30.806,0,0,1,52.771,56.61H328.554a30.806,30.806,0,0,1,30.772,30.771V210.06h12V102.574h12.385a30.806,30.806,0,0,1,30.771,30.771v87.124h12V133.345a42.819,42.819,0,0,0-42.771-42.771H371.326V87.381A42.82,42.82,0,0,0,328.554,44.61H52.771A42.819,42.819,0,0,0,10,87.381V272.443a42.82,42.82,0,0,0,42.771,42.772H65.157v3.192a42.82,42.82,0,0,0,42.771,42.772h138.24v-12H107.928a30.806,30.806,0,0,1-30.771-30.772v-3.192H247.473v-12h-83l81.863-85.309a14.971,14.971,0,0,1,19.547-1.88c.07.05.142.1.215.145l31.031,19.934Zm-250.844,77.2a30.812,30.812,0,0,1-30.565-27.259l99.222-65.716c.145-.095.285-.2.421-.3a15.092,15.092,0,0,1,17.311-1.009l62.158,38.561-53.477,55.727Z" style="fill:#0635c9"/><path d="M106.786,126.951a47.368,47.368,0,1,0,47.368-47.367A47.421,47.421,0,0,0,106.786,126.951Zm82.735,0a35.368,35.368,0,1,1-35.367-35.367A35.408,35.408,0,0,1,189.521,126.951Z" style="fill:#0635c9"/><path d="M370.335,204.06A131.632,131.632,0,0,0,238.67,335.725c0,72.6,59.064,131.665,131.665,131.665S502,408.325,502,335.725,442.935,204.06,370.335,204.06Zm0,251.33A119.665,119.665,0,1,1,490,335.725,119.8,119.8,0,0,1,370.335,455.39Z" style="fill:#1ae5be"/><path d="M429.948,276.11a50.86,50.86,0,0,0-75.918,67.435l-56.45,56.449a6,6,0,0,0,8.486,8.485l56.446-56.447a50.862,50.862,0,0,0,67.436-75.921Zm-8.485,63.452a38.849,38.849,0,1,1,0-54.965h0A38.911,38.911,0,0,1,421.463,339.562Z" style="fill:#1ae5be"/><path d="M412.654,318.628a12.852,12.852,0,0,1-11.25,11.249,6,6,0,0,0,.71,11.958,6.115,6.115,0,0,0,.724-.044,24.824,24.824,0,0,0,21.73-21.729,6,6,0,1,0-11.914-1.434Z" style="fill:#1ae5be"/><path d="M72,87.381A30.806,30.806,0,0,1,102.771,56.61h-50A30.806,30.806,0,0,0,22,87.381V261.7l50-33.115Z" style="fill:#d4e1f4"/><path d="M72.207,275.957l84.64-56.058L139.16,208.927a15.093,15.093,0,0,0-17.311,1.009c-.136.107-.276.21-.42.305L22.207,275.957a30.809,30.809,0,0,0,30.564,27.257h50A30.809,30.809,0,0,1,72.207,275.957Z" style="fill:#d4e1f4"/><path d="M117.156,318.407v-3.193h-40v3.193a30.806,30.806,0,0,0,30.772,30.771h40A30.806,30.806,0,0,1,117.156,318.407Z" style="fill:#d4e1f4"/><path d="M270.67,335.725A119.6,119.6,0,0,1,380.364,216.484q-4.96-.416-10.029-.424a119.665,119.665,0,0,0,0,239.33q5.052,0,10-.422A119.822,119.822,0,0,1,270.67,335.725Z" style="fill:#d4e1f4"/></svg>
