<?xml version="1.0"?>
<svg xmlns="http://www.w3.org/2000/svg" id="Layer_1" data-name="Layer 1" viewBox="0 0 512 512" width="512" height="512"><title>Programming</title><path d="M173,429.172V404H143v25.172A33.909,33.909,0,0,0,177.02,463h30A33.909,33.909,0,0,1,173,429.172Z" style="fill:#d4e1f4"/><rect x="143" y="108" width="30" height="284" style="fill:#d4e1f4"/><path d="M173,82.828A33.909,33.909,0,0,1,207.02,49h-30A33.909,33.909,0,0,0,143,82.828V96h30Z" style="fill:#d4e1f4"/><path d="M381,83a46,46,0,0,0-46-46H177a46,46,0,0,0-46,46V429a46,46,0,0,0,46,46H335a46,46,0,0,0,46-46ZM334.979,463H177.021A33.909,33.909,0,0,1,143,429.172V404H369v25.172A33.909,33.909,0,0,1,334.979,463ZM369,96H341.93a6,6,0,0,0,0,12H369V392H143V108H282.109a6,6,0,0,0,0-12H143V82.828A33.909,33.909,0,0,1,177.021,49H334.979A33.909,33.909,0,0,1,369,82.828Z" style="fill:#0635c9"/><path d="M317.945,96h-11.02a6,6,0,0,0,0,12h11.02a6,6,0,0,0,0-12Z" style="fill:#0635c9"/><path d="M256,412.605a20.873,20.873,0,1,0,20.872,20.874A20.9,20.9,0,0,0,256,412.605Zm0,29.746a8.873,8.873,0,1,1,8.872-8.872A8.883,8.883,0,0,1,256,442.351Z" style="fill:#0635c9"/><path d="M226.358,222.226a6,6,0,0,0-8.458-.679l-34.66,29.515a6,6,0,0,0,0,9.137l34.66,29.516a6,6,0,0,0,7.78-9.137l-29.3-24.947,29.3-24.947A6,6,0,0,0,226.358,222.226Z" style="fill:#1ae5be"/><path d="M328.76,251.062,294.1,221.547a6,6,0,0,0-7.78,9.137l29.3,24.947-29.3,24.947a6,6,0,0,0,7.78,9.137L328.76,260.2a6,6,0,0,0,0-9.137Z" style="fill:#1ae5be"/><path d="M266.562,198.845a5.993,5.993,0,0,0-7.108,4.634l-21.6,102.569a6,6,0,1,0,11.742,2.473l21.6-102.569A6,6,0,0,0,266.562,198.845Z" style="fill:#1ae5be"/></svg>
